<?xml version="1.0" encoding="UTF-8"?>
<!DOCTYPE svg PUBLIC "-//W3C//DTD SVG 1.1//EN" "http://www.w3.org/Graphics/SVG/1.1/DTD/svg11.dtd">
<!-- Creator: CorelDRAW X6 -->
<svg xmlns="http://www.w3.org/2000/svg" xml:space="preserve" width="52.2991mm" height="22.5501mm" version="1.1" style="shape-rendering:geometricPrecision; text-rendering:geometricPrecision; image-rendering:optimizeQuality; fill-rule:evenodd; clip-rule:evenodd"
viewBox="0 0 416 179"
 xmlns:xlink="http://www.w3.org/1999/xlink">
 <defs>
  <style type="text/css">
   <![CDATA[
    .fil0 {fill:#434242}
    .fil2 {fill:#727271}
    .fil1 {fill:#E31E24}
   ]]>
  </style>
 </defs>
 <g id="Layer_x0020_1">
  <metadata id="CorelCorpID_0Corel-Layer"/>
  <g id="_876817968">
   <path class="fil0" d="M0 64l0 86c4,1 14,2 18,-1 0,-24 0,-50 1,-73 1,6 12,58 14,69 0,6 0,6 13,6 5,0 4,-3 5,-8 1,-7 3,-15 4,-23 3,-15 7,-29 9,-44l0 68c0,7 0,7 6,7 4,0 8,0 12,-1l0 -109c0,-8 -4,-5 -19,-5 -10,0 -7,-2 -10,13 -1,7 -3,14 -4,20 -2,13 -5,27 -8,40l-13 -67c-1,-8 0,-6 -16,-6 -14,0 -12,-5 -12,28z"/>
   <path class="fil1" d="M217 163c-39,0 -75,1 -114,4 -17,1 -92,7 -103,12l413 0c-1,0 0,0 -2,0l-3 -1c-31,-5 -57,-9 -88,-11 -35,-2 -68,-4 -103,-4z"/>
   <path class="fil0" d="M111 111c0,41 -3,40 9,40 5,0 7,0 10,-1 1,-12 0,-27 0,-39 0,-7 5,-18 7,-25l14 -43c2,-6 4,-7 -8,-7 -3,0 -7,0 -10,0 -2,3 -10,40 -12,46 -2,-2 -7,-24 -7,-26 -1,-4 -3,-9 -4,-13 -2,-9 1,-7 -16,-7 -8,0 -8,-1 -2,15 5,12 19,51 19,60z"/>
   <path class="fil0" d="M304 43l0 107c3,1 9,1 13,1 8,0 6,-4 6,-18l0 -31c2,0 24,0 25,-1l1 -5c0,-14 1,-12 -7,-12l-19 0 0 -30 26 0c7,0 5,-3 5,-13 0,-7 -3,-5 -17,-5 -7,0 -14,0 -21,0 -14,0 -12,-1 -12,7z"/>
   <path class="fil0" d="M360 52c2,3 14,2 18,2 1,18 0,57 0,76l0 20c4,1 14,1 18,0 2,-28 0,-66 1,-96 5,-1 14,1 19,-1 1,-3 0,-13 0,-17 -13,-1 -36,0 -50,0 -5,0 -7,-1 -8,4 0,4 0,11 2,12z"/>
   <path class="fil0" d="M182 49l0 101c4,2 35,1 41,1 4,0 6,1 8,-1 2,-2 1,-13 0,-15 -2,-2 -26,-1 -30,-1 0,-31 0,-66 0,-98 -3,0 -13,-1 -16,0 -5,1 -3,5 -3,13z"/>
   <path class="fil0" d="M267 51c11,4 8,8 8,29l0 29c0,12 4,29 -12,26l-2 17c8,3 19,-1 26,-8 9,-9 7,-22 7,-38l0 -42c0,-14 -5,-28 -20,-30 -3,5 -6,10 -7,17z"/>
   <path class="fil2" d="M257 152c1,-3 6,-54 7,-66 0,-2 1,-4 1,-5 2,-9 5,1 4,-14 0,0 -9,2 -17,2 -8,0 -12,-1 -19,-2 1,19 2,-3 4,23 0,11 0,43 4,51 2,5 8,11 16,11z"/>
   <path class="fil2" d="M247 55l13 0c2,-4 3,-9 5,-14 3,-8 9,-13 17,-17 4,-3 8,-4 13,-6l0 -13c-12,1 -25,9 -32,17 -5,5 -8,8 -11,14 -2,6 -4,12 -5,19z"/>
   <path class="fil2" d="M343 3c2,3 1,14 0,17l0 -17zm-2 0c-10,0 -35,0 -42,2l0 13 42 0 2 4 6 0c1,-7 1,-15 0,-22l-7 0 -1 3z"/>
   <path class="fil2" d="M351 11c0,4 0,9 0,10 5,0 -1,-4 10,-3 1,1 0,1 1,2 0,1 0,1 0,1l0 0 1 0c0,0 2,1 5,1l0 0c2,0 3,0 4,-1 2,0 4,0 6,0 0,-1 1,-2 1,-3 1,-2 1,-5 1,-7 0,-3 0,-5 -1,-7 0,-1 -1,-3 -1,-3 -2,-1 -4,-1 -6,-1 -1,0 -2,0 -4,0l0 0c-3,0 -5,0 -5,0l-1 0 0 1c0,0 0,0 0,0 -1,1 0,1 -1,2 -11,1 -5,-2 -10,-2 0,1 0,5 0,10z"/>
   <path class="fil2" d="M236 64c6,3 24,3 30,0l0 -8c-2,0 -9,1 -14,1 -7,0 -10,-1 -16,-2l0 9z"/>
   <path class="fil2" d="M343 20c1,-3 2,-14 0,-17l0 17z"/>
  </g>
 </g>
</svg>
