<?xml version="1.0" encoding="UTF-8"?>
<!DOCTYPE svg PUBLIC "-//W3C//DTD SVG 1.1//EN" "http://www.w3.org/Graphics/SVG/1.1/DTD/svg11.dtd">
<!-- Creator: CorelDRAW X6 -->
<svg xmlns="http://www.w3.org/2000/svg" xml:space="preserve" width="52.2991mm" height="22.5501mm" version="1.1" style="shape-rendering:geometricPrecision; text-rendering:geometricPrecision; image-rendering:optimizeQuality; fill-rule:evenodd; clip-rule:evenodd"
viewBox="0 0 410 177"
 xmlns:xlink="http://www.w3.org/1999/xlink">
 <defs>
  <style type="text/css">
   <![CDATA[
    .fil2 {fill:#2B2A29}
    .fil1 {fill:#E31E24}
    .fil0 {fill:#FEFEFE}
   ]]>
  </style>
 </defs>
 <g id="Layer_x0020_1">
  <metadata id="CorelCorpID_0Corel-Layer"/>
  <path class="fil0" d="M0 63l0 84c4,2 14,2 18,0 0,-24 0,-49 0,-72 2,6 13,56 14,68 1,6 1,6 13,5 5,0 5,-2 5,-7 2,-8 3,-15 4,-23 3,-14 7,-29 9,-43l0 67c0,6 0,6 6,6 4,0 8,1 12,0l0 -107c0,-8 -4,-6 -19,-6 -9,0 -7,-2 -10,14 -1,6 -2,13 -4,19 -2,13 -4,27 -7,39l-13 -66c-1,-7 -1,-6 -16,-6 -14,0 -12,-5 -12,28z"/>
  <path class="fil1" d="M213 160c-38,0 -74,2 -111,4 -17,1 -91,7 -102,13l406 0c0,-1 0,-1 -1,-1l-4 -1c-30,-5 -56,-8 -87,-10 -34,-2 -66,-5 -101,-5z"/>
  <path class="fil0" d="M109 109c0,41 -3,39 9,39 5,0 7,1 10,-1 0,-11 0,-26 0,-37 0,-8 5,-19 7,-26l14 -41c2,-7 4,-8 -8,-8 -3,0 -7,0 -10,0 -2,3 -10,39 -12,46 -1,-3 -7,-24 -7,-26 -1,-4 -2,-8 -4,-12 -2,-9 1,-8 -15,-8 -8,0 -8,0 -2,15 4,12 18,51 18,59z"/>
  <path class="fil0" d="M299 43l0 105c4,1 9,0 13,0 8,0 5,-4 5,-17l0 -31c3,0 25,0 26,-1l0 -5c0,-13 2,-11 -6,-11l-20 0 0 -30 27 0c6,0 4,-3 4,-12 0,-8 -3,-6 -17,-6 -6,0 -13,0 -20,0 -14,0 -12,-1 -12,8z"/>
  <path class="fil0" d="M354 52c2,2 14,1 18,1 1,18 0,56 0,74l0 21c4,1 14,1 18,0 1,-28 0,-65 0,-95 6,-1 15,1 19,-1 1,-3 0,-12 0,-16 -12,-2 -35,-1 -49,-1 -4,0 -7,-1 -7,5 0,3 -1,10 1,12z"/>
  <path class="fil0" d="M179 48l0 100c4,1 35,0 41,0 3,0 5,1 7,-1 2,-2 1,-12 0,-14 -2,-3 -26,-1 -29,-1 -1,-31 0,-65 0,-96 -3,-1 -13,-1 -16,-1 -4,1 -3,5 -3,13z"/>
  <path class="fil0" d="M262 50c11,4 9,8 9,28l0 29c0,12 3,29 -12,26l-2 16c8,4 19,0 25,-7 9,-9 7,-22 7,-38l0 -41c0,-14 -5,-27 -20,-29 -2,5 -6,9 -7,16z"/>
  <path class="fil2" d="M253 150c1,-3 6,-54 7,-65 0,-2 0,-4 1,-6 1,-8 5,1 4,-13 -1,0 -9,2 -17,2 -8,0 -12,-1 -19,-2 1,19 3,-3 4,23 1,10 0,42 4,49 2,6 8,11 16,12z"/>
  <path class="fil2" d="M243 54l13 0c2,-4 2,-9 4,-13 4,-8 10,-13 17,-18 5,-3 9,-3 13,-5l0 -13c-12,1 -24,9 -32,17 -4,4 -7,7 -10,14 -2,5 -4,11 -5,18z"/>
  <path class="fil2" d="M338 3c1,3 1,14 0,17l0 -17zm-3 0c-9,0 -33,0 -40,2l0 13 40 0 2 3 6 0c1,-6 1,-15 0,-21l-6 0 -2 3z"/>
  <path class="fil2" d="M345 11c0,4 0,9 0,9 6,0 -1,-3 11,-2 0,1 0,1 0,2 0,0 0,0 0,1l1 0 0 0c1,0 2,0 5,0l1 0c1,0 2,0 3,0 2,0 4,0 6,0 0,-1 1,-2 1,-3 1,-3 1,-5 1,-7 0,-3 0,-5 -1,-7 0,-2 -1,-3 -1,-3 -2,-1 -4,-1 -6,-1 -1,0 -2,0 -3,0l-1 0c-3,0 -4,0 -5,0l0 0 -1 1c0,0 0,0 0,0 0,1 0,1 0,2 -12,1 -5,-2 -11,-2 0,1 0,5 0,10z"/>
  <path class="fil2" d="M233 63c5,3 23,3 29,0l0 -8c-2,0 -10,2 -14,1 -7,0 -10,-1 -16,-2l1 9z"/>
  <path class="fil2" d="M338 20c1,-3 1,-14 0,-17l0 17z"/>
 </g>
</svg>
