<?xml version="1.0" encoding="UTF-8"?>
<!DOCTYPE svg PUBLIC "-//W3C//DTD SVG 1.1//EN" "http://www.w3.org/Graphics/SVG/1.1/DTD/svg11.dtd">
<!-- Creator: CorelDRAW X6 -->
<svg xmlns="http://www.w3.org/2000/svg" xml:space="preserve" width="29.7773mm" height="33.2933mm" version="1.1" style="shape-rendering:geometricPrecision; text-rendering:geometricPrecision; image-rendering:optimizeQuality; fill-rule:evenodd; clip-rule:evenodd"
viewBox="0 0 126 141"
 xmlns:xlink="http://www.w3.org/1999/xlink">
 <defs>
  <style type="text/css">
   <![CDATA[
    .fil1 {fill:#434242}
    .fil2 {fill:#727271}
    .fil0 {fill:#E31E24}
   ]]>
  </style>
 </defs>
 <g id="Layer_x0020_1">
  <metadata id="CorelCorpID_0Corel-Layer"/>
  <path class="fil0" d="M66 132c-12,0 -23,1 -34,2 -6,1 -29,4 -32,7l126 0c0,0 0,0 0,0l-2 -1c-9,-3 -17,-4 -26,-5 -11,-2 -21,-3 -32,-3z"/>
  <g id="_94157360">
   <path class="fil1" d="M0 15l0 46c2,1 8,1 10,0 0,-13 0,-27 0,-39 1,3 7,30 7,36 1,4 1,4 7,3 3,0 3,-1 3,-4 1,-4 2,-8 2,-12 2,-8 4,-16 5,-23l0 36c0,3 0,3 3,3 3,0 5,1 7,0l0 -58c0,-4 -2,-3 -10,-3 -6,0 -4,-1 -6,7 0,4 -1,8 -2,11 -1,7 -2,14 -4,21l-7 -36c-1,-4 0,-3 -9,-3 -7,0 -6,-2 -6,15z"/>
   <path class="fil1" d="M59 40c0,22 -2,21 5,21 2,0 3,1 5,0 0,-6 0,-14 0,-21 0,-4 3,-9 4,-13l7 -23c2,-3 3,-4 -4,-4 -2,0 -3,0 -5,0 -1,2 -6,21 -6,25 -1,-1 -4,-13 -4,-14 -1,-2 -2,-5 -2,-7 -2,-5 0,-4 -9,-4 -4,0 -4,0 -1,8 2,7 10,28 10,32z"/>
  </g>
  <g id="_955392896">
   <path class="fil1" d="M65 69l0 56c2,1 5,1 7,1 4,0 3,-3 3,-10l0 -16c1,0 13,0 14,-1l0 -2c0,-8 1,-7 -4,-7l-10 0 0 -16 14 0c4,0 3,-1 3,-7 0,-4 -2,-2 -10,-2 -3,0 -7,0 -10,0 -8,0 -7,-1 -7,4z"/>
   <path class="fil1" d="M95 73c1,2 7,1 9,1 1,10 0,31 0,40l0 11c3,1 8,1 10,0 1,-15 0,-35 1,-51 2,0 7,1 9,0 1,-2 1,-7 1,-9 -7,-1 -20,0 -27,0 -2,0 -4,-1 -4,2 0,2 0,5 1,6z"/>
   <path class="fil1" d="M0 71l0 54c2,1 19,1 22,1 2,0 3,0 4,-1 1,-1 1,-6 0,-8 -1,-1 -14,0 -16,0 0,-17 0,-35 0,-52 -1,-1 -7,-1 -8,0 -3,0 -2,2 -2,6z"/>
   <path class="fil1" d="M45 72c6,3 5,5 5,16l0 15c0,7 2,16 -7,14l-1 9c5,2 10,0 14,-4 5,-5 4,-12 4,-20l0 -22c0,-8 -3,-15 -11,-16 -1,2 -3,5 -4,8z"/>
   <path class="fil2" d="M40 126c1,-1 3,-29 4,-35 0,-1 0,-2 0,-3 1,-4 3,1 2,-7 0,0 -4,1 -9,1 -4,0 -6,0 -10,-1 1,10 2,-1 2,13 1,5 1,22 2,26 2,3 5,6 9,6z"/>
   <path class="fil2" d="M35 75l7 0c1,-2 1,-5 2,-7 2,-5 5,-7 9,-10 3,-1 5,-2 7,-3l0 -7c-6,1 -13,5 -17,9 -2,3 -4,4 -5,8 -2,3 -3,6 -3,10z"/>
   <path class="fil2" d="M86 47c1,2 1,8 0,9l0 -9zm-1 0c-6,0 -19,0 -22,1l0 7 22 0 1 2 3 0c1,-3 0,-8 0,-11l-4 0 0 1z"/>
   <path class="fil2" d="M90 51c0,3 0,5 0,6 3,-1 0,-2 6,-2 0,1 0,1 0,1 0,0 0,1 0,1l0 0 0 0c1,0 2,0 3,0l0 0c1,0 2,0 2,0 1,0 3,0 3,0 1,-1 1,-1 1,-2 0,-1 1,-2 1,-4 0,-1 -1,-2 -1,-4 0,0 0,-1 -1,-1 0,0 -2,0 -3,0 0,0 -1,-1 -2,0l0 0c-1,-1 -2,0 -3,0l0 0 0 0c0,0 0,0 0,0 0,1 0,1 0,1 -6,1 -3,-1 -6,-1 0,0 0,3 0,5z"/>
   <path class="fil2" d="M29 80c3,1 13,1 16,0l0 -5c-1,0 -5,1 -8,1 -3,0 -5,-1 -8,-1l0 5z"/>
   <path class="fil2" d="M86 56c1,-1 1,-7 0,-9l0 9z"/>
  </g>
 </g>
</svg>
