<?xml version="1.0" encoding="UTF-8"?>
<!DOCTYPE svg PUBLIC "-//W3C//DTD SVG 1.1//EN" "http://www.w3.org/Graphics/SVG/1.1/DTD/svg11.dtd">
<!-- Creator: CorelDRAW X6 -->
<svg xmlns="http://www.w3.org/2000/svg" xml:space="preserve" width="129.89mm" height="56.0053mm" version="1.1" style="shape-rendering:geometricPrecision; text-rendering:geometricPrecision; image-rendering:optimizeQuality; fill-rule:evenodd; clip-rule:evenodd"
viewBox="0 0 1009 435"
 xmlns:xlink="http://www.w3.org/1999/xlink">
 <defs>
  <style type="text/css">
   <![CDATA[
    .fil2 {fill:#C5C6C6}
    .fil1 {fill:#E31E24}
    .fil0 {fill:#FEFEFE}
   ]]>
  </style>
 </defs>
 <g id="Layer_x0020_1">
  <metadata id="CorelCorpID_0Corel-Layer"/>
  <g id="_860394016">
   <path class="fil0" d="M0 155l1 208c9,4 34,5 43,-1 1,-58 -1,-122 1,-178 5,15 31,140 34,167 2,15 2,15 31,14 13,0 12,-6 14,-18 3,-18 6,-37 10,-56 6,-35 15,-71 21,-107l0 166c0,15 0,15 16,15 9,0 19,1 28,-1l1 -264c0,-20 -11,-13 -47,-13 -24,0 -17,-5 -25,33 -3,16 -6,32 -9,48 -6,30 -12,66 -19,95l-31 -162c-3,-18 -2,-14 -40,-14 -34,0 -29,-13 -29,68z"/>
   <path class="fil1" d="M525 395c-93,0 -182,3 -274,9 -42,3 -225,17 -250,31l1000 0c-2,-1 -1,-1 -4,-2l-10 -2c-73,-13 -138,-20 -213,-25 -84,-6 -164,-11 -249,-11z"/>
   <path class="fil0" d="M269 268c0,101 -8,97 22,97 11,0 16,2 23,-2 2,-28 1,-64 1,-93 0,-19 12,-45 17,-62l34 -103c5,-15 10,-19 -19,-18 -8,0 -16,-1 -24,0 -5,7 -26,96 -29,111 -5,-5 -17,-56 -19,-63 -2,-10 -5,-20 -8,-30 -6,-22 2,-18 -39,-18 -20,0 -19,-1 -5,37 11,29 46,124 46,144z"/>
   <path class="fil0" d="M735 105l1 259c9,2 22,1 32,1 19,1 14,-10 14,-43l-1 -75c7,-1 61,0 63,-3l2 -12c0,-32 3,-28 -17,-28l-47 0 -1 -74 66 0c15,0 11,-7 11,-30 0,-19 -8,-13 -42,-13 -17,0 -33,0 -49,0 -36,0 -32,-3 -32,18z"/>
   <path class="fil0" d="M872 127c4,5 34,3 43,3 2,45 1,139 0,184l1 49c10,4 33,3 44,1 4,-69 0,-161 1,-234 14,-1 36,3 46,-2 3,-8 1,-30 1,-40 -31,-3 -88,-1 -121,-1 -12,0 -18,-3 -19,11 0,8 -2,24 4,29z"/>
   <path class="fil0" d="M441 118l0 245c10,5 85,2 100,2 8,1 14,3 18,-3 4,-4 3,-29 0,-35 -4,-6 -63,-3 -72,-3 -1,-76 1,-159 0,-236 -7,-2 -31,-2 -39,-1 -11,1 -7,12 -7,31z"/>
   <path class="fil0" d="M646 123c27,10 20,20 20,70l0 70c0,30 10,71 -28,64l-5 41c20,8 45,-2 62,-18 22,-24 17,-55 17,-93l0 -102c0,-34 -12,-67 -49,-72 -6,12 -14,24 -17,40z"/>
   <path class="fil2" d="M623 368c3,-6 14,-132 17,-159 1,-5 1,-9 2,-13 4,-22 12,2 10,-34 -1,0 -21,6 -42,6 -20,0 -28,-4 -45,-7 1,47 5,-5 9,58 1,25 1,103 9,122 6,14 21,27 40,27z"/>
   <path class="fil2" d="M598 132l32 1c4,-9 6,-22 11,-33 9,-20 23,-32 41,-43 12,-7 21,-8 32,-13l1 -32c-29,4 -61,21 -79,41 -10,12 -17,19 -24,35 -7,14 -12,29 -14,44z"/>
   <path class="fil2" d="M832 8c4,6 2,34 -1,41l1 -41zm-7 0c-23,0 -82,-2 -100,4l0 33 100 -1 5 9 15 0c3,-16 2,-37 -1,-53l-15 0 -4 8z"/>
   <path class="fil2" d="M850 26c0,11 0,22 0,24 14,0 -2,-8 26,-6 1,3 0,3 1,5 0,1 0,1 1,2l0 0 1 0c1,1 5,1 13,1l1 0c3,0 6,0 9,0 5,0 9,0 14,-1 1,-2 1,-5 2,-8 2,-5 3,-11 3,-17 0,-6 -1,-12 -3,-17 -1,-3 -1,-5 -2,-8 -5,0 -9,-1 -14,-1 -3,0 -6,0 -9,0l-1 0c-8,0 -12,0 -13,1l-1 0 0 1c-1,0 -1,1 -1,1 -1,3 0,3 -1,5 -28,2 -12,-5 -26,-6 0,2 0,13 0,24z"/>
   <path class="fil2" d="M573 155c14,8 58,8 72,1l0 -21c-6,0 -24,4 -35,4 -17,0 -24,-3 -38,-5l1 21z"/>
   <path class="fil2" d="M831 49c3,-7 5,-35 1,-41l-1 41z"/>
  </g>
 </g>
</svg>
