<svg aria-hidden="true" style="position: absolute; width: 0; height: 0; overflow: hidden;" version="1.1" xmlns="http://www.w3.org/2000/svg" xmlns:xlink="http://www.w3.org/1999/xlink">
<defs>
<symbol id="icon-exit" viewBox="0 0 32 32">
<path d="M10.145 12.634c0 0.15 0.035 0.274 0.071 0.415 0.009 0.035 0.018 0.053 0.026 0.088 0.062 0.141 0.124 0.265 0.221 0.379l0.018 0.018c0.071 0.079 0.132 0.159 0.221 0.229l0.326 0.194c0 0 0.009 0 0.009 0 0.071 0.035 0.247 0.097 0.326 0.097 0.326 0 0.485 0.062 0.847-0.079l0.309-0.168c0.018-0.009 0.018-0.018 0.035-0.026 0 0 0.009-0.009 0.009-0.009 0.009 0 0.009-0.009 0.018-0.009 0.168-0.141 0.344-0.335 0.424-0.547 0.044-0.115 0.097-0.238 0.124-0.362 0.018-0.132 0.168-0.573 0.176-0.662 0.009-0.071 0-0.044 0.018-0.097 0.071-0.203 0.15-0.609 0.212-0.75 0.018-0.044 0.026-0.053 0.026-0.115 0.106 0 0.079-0.009 0.159-0.035l0.503-0.141c0 0.124-0.044 0.265-0.079 0.371l-0.159 0.485c-0.026 0.071-0.009 0.071-0.026 0.132-0.018 0.071-0.018 0.026-0.044 0.097l-0.106 0.371c-0.044 0.106-0.141 0.441-0.141 0.538 0 0.141 0.097 0.274 0.185 0.353 0.071 0.071 0.212 0.132 0.309 0.132 0.071 0 0.221-0.053 0.274-0.088 0.044-0.026 0.044-0.026 0.079-0.062l0.379-1.041c0.018-0.053 0.018-0.018 0.035-0.097 0.009-0.035 0.018-0.071 0.026-0.097l0.159-0.485c0.009-0.044 0-0.062 0.018-0.106l0.159-0.494c0.035-0.106 0.088-0.326 0.088-0.424 0-0.071 0-0.097-0.009-0.15-0.035-0.221-0.185-0.379-0.371-0.494-0.106-0.062-0.247-0.079-0.379-0.079-0.088 0-0.882 0.247-1.015 0.282-0.3 0.097-0.362 0.062-0.662 0.274-0.071 0.053-0.124 0.124-0.185 0.194l-0.132 0.247c-0.053 0.115-0.097 0.371-0.115 0.424l-0.044 0.159c-0.018 0.106-0.018 0.035-0.044 0.132-0.026 0.071-0.009 0.097-0.035 0.168l-0.088 0.291c-0.018 0.062-0.009 0.088-0.026 0.15l-0.124 0.432c-0.018 0.097-0.071 0.203-0.132 0.274 0 0-0.009 0.009-0.009 0.009l-0.079 0.062c-0.168 0.088-0.397 0.097-0.565 0 0 0-0.009 0-0.009-0.009-0.009 0-0.009 0-0.009-0.009l-0.088-0.071c-0.15-0.168-0.097-0.344-0.071-0.529 0.018-0.071 0.018-0.053 0.044-0.106l0.432-1.579 0.274-0.388c0.15-0.15 0.344-0.247 0.538-0.318l0.247-0.071c0.044-0.009 0.062-0.009 0.115-0.026l0.529-0.168c0.062-0.018 0.009 0 0.062-0.018l0.865-0.282c0.018 0 0.044-0.009 0.062-0.009l0.82-0.256c0.071-0.018 0.062-0.035 0.115-0.053 0.062-0.009 0.053 0 0.115-0.018l0.097-0.044c0.009 0 0.018 0 0.018 0 0.088-0.018 0.088-0.044 0.168-0.062l0.176-0.053c0.044-0.018 0.088-0.018 0.132-0.035 0.062-0.018 0.018-0.018 0.106-0.035l0.591-0.185c0.071-0.018 0.062-0.009 0.124-0.035 0.185-0.071 0.344-0.035 0.582-0.035 0.062 0 0.062 0.018 0.106 0.035 0.079 0.026 0.15 0.035 0.229 0.071l0.273 0.168c0.212 0.159 0.291 0.326 0.424 0.547l0.362 0.715c0.026 0.035 0.009 0.009 0.035 0.053l0.406 0.794c0.018 0.035 0.026 0.044 0.044 0.088 0.018 0.035 0.035 0.071 0.053 0.106 0.026 0.053 0.035 0.053 0.053 0.106 0.009 0.009 0.018 0.026 0.018 0.026 0 0.009 0 0.009 0.009 0.018 0 0 0 0.009 0.009 0.009l0.432 0.723 0.45 0.274c0.371 0.115 1.888-0.035 2.347 0.071 0.097 0.018 0.159 0.071 0.212 0.141l0.044 0.062c0.088 0.185 0.071 0.353-0.062 0.512-0.044 0.044-0.124 0.132-0.194 0.132h-2.514c-0.079 0-0.291-0.097-0.371-0.141l-0.159-0.106c0 0-0.018-0.009-0.026-0.018l-0.018-0.018c0 0-0.053-0.044-0.053-0.044l-0.062-0.062c-0.247-0.265-0.291-0.6-0.635-0.82l-0.194-0.097c-0.009-0.009-0.018-0.009-0.018-0.009-0.009 0-0.009 0-0.018 0l-0.044-0.018c-0.15-0.062-0.291-0.044-0.459-0.044-0.106 0-0.238 0.062-0.326 0.106l-0.141 0.088c0 0-0.009 0.009-0.009 0.009l-0.044 0.035c-0.141 0.115-0.265 0.282-0.326 0.45l-0.088 0.371c-0.018 0.124-0.026 0.062-0.053 0.176l-0.062 0.371 0.044 0.256c0.018 0.053 0.009 0.062 0.026 0.097l0.071 0.15c0.018 0.035 0.018 0.035 0.044 0.079l0.106 0.229c0 0 0.009 0.009 0.009 0.009 0 0.009 0 0.018 0.009 0.018l0.935 1.923c0 0 0 0.018 0.009 0.026 0 0.009 0 0.009 0 0.018l0.565 1.147c0.053 0.115 0.097 0.212 0.15 0.309l0.476 0.971c0 0.018 0.018 0.035 0.018 0.035l0.079 0.168c0.097 0.194 0.176 0.397 0.282 0.591 0.026 0.035 0.009 0 0.026 0.035 0 0.009 0 0.009 0.009 0.018l0.168 0.353c0.009 0.026 0.018 0.044 0.035 0.079l0.291 0.6c0.018 0.035 0.026 0.053 0.044 0.079 0.009 0.018 0.009 0.026 0.018 0.044s0.009 0.026 0.018 0.044l0.212 0.45c0.062 0.159 0.035 0.353-0.044 0.503 0 0.009 0 0.018-0.009 0.018l-0.124 0.15c0 0.009-0.009 0.009-0.009 0.009 0 0.009-0.009 0.009-0.009 0.009l-0.168 0.097c-0.026 0.018-0.053 0.035-0.062 0.035-0.256 0.088-0.573-0.026-0.715-0.247 0 0-0.009-0.009-0.009-0.009s-0.009-0.009-0.009-0.009l-0.079-0.159c-0.026-0.053-0.044-0.079-0.071-0.132-0.009-0.035-0.009-0.035-0.018-0.062l-0.697-1.447c-0.009-0.026-0.009-0.018-0.026-0.053l-0.009-0.026c0-0.009 0-0.009 0-0.018l-0.026-0.035c0-0.009 0-0.009-0.009-0.018l-1.473-3.114c0-0.009-0.009-0.018-0.018-0.026l-0.009-0.026c-0.009 0-0.009-0.009-0.009-0.009l-0.159-0.344c-0.009-0.035-0.044-0.088-0.062-0.132l-0.079-0.124c-0.071-0.106-0.159-0.194-0.265-0.256 0-0.009 0-0.009-0.009-0.009l-0.247-0.132c-0.247-0.097-0.609-0.062-0.838 0.062l-0.291 0.221c-0.035 0.035-0.026 0.026-0.053 0.071-0.035 0.044-0.062 0.079-0.088 0.132l-0.168 0.468c-0.035 0.079-0.026 0.106-0.044 0.176l-0.247 0.838c-0.018 0.106-0.035 0.053-0.053 0.141-0.009 0.035 0 0.053-0.009 0.088l-0.106 0.318c-0.018 0.044-0.009 0.062-0.018 0.106-0.009 0.062-0.035 0.071-0.053 0.15-0.009 0.044 0 0.035-0.009 0.079l-0.15 0.415-0.168 0.265c-0.009 0.009-0.009 0.009-0.009 0.018l-0.176 0.168c-0.15 0.141-0.441 0.265-0.644 0.265-0.432 0-3.458 0.035-3.617-0.018-0.097-0.026-0.221-0.097-0.3-0.176-0.132-0.141-0.238-0.406-0.176-0.6l0.053-0.168c0 0 0-0.009 0.009-0.009 0.044-0.106 0.106-0.176 0.194-0.247 0.203-0.15 0.406-0.141 0.679-0.141h2.179c0.221 0 0.388 0 0.6-0.097 0 0 0.009-0.009 0.009-0.009l0.044-0.018c0 0 0.009 0 0.009 0l0.326-0.282c0 0 0.009 0 0.009-0.009 0 0 0.009-0.009 0.009-0.009 0.009 0 0.009-0.009 0.009-0.009l0.026-0.035c0-0.009 0.009-0.009 0.009-0.018l0.035-0.062c0.106-0.185 0.159-0.415 0.212-0.609l0.124-0.415c0.018-0.079 0.018-0.026 0.044-0.097l0.053-0.203c0.018-0.053 0.009-0.062 0.026-0.115 0.018-0.044 0.026-0.044 0.044-0.097l0.185-0.626c0.088-0.274 0.168-0.6-0.124-0.794-0.009 0-0.018 0-0.018-0.009-0.168-0.097-0.124-0.062-0.415-0.062-0.053 0-0.044 0.018-0.097 0.053l-0.159 0.15c-0.009 0.009-0.018 0.018-0.018 0.026l-0.062 0.15c-0.026 0.088-0.018 0.062-0.044 0.124l-0.097 0.344c-0.018 0.053-0.026 0.053-0.035 0.097-0.062 0.229-0.15 0.468-0.203 0.697l-0.247 0.776c-0.009 0.079 0.009 0.079-0.044 0.115-0.088 0.079-0.953 0.044-1.129 0.044-0.265 0-1.535-0.026-1.738 0.026-0.097 0.026-0.159 0-0.256 0.044-0.141 0.062-0.265 0.088-0.397 0.176l-0.212 0.15c-0.018 0.018-0.018 0.026-0.044 0.044-0.026 0.026-0.044 0.044-0.079 0.079-0.176 0.176-0.318 0.406-0.397 0.635-0.009 0.044-0.009 0.079-0.026 0.132-0.053 0.185-0.088 0.556-0.018 0.741l0.159 0.441c0.026 0.044 0.009 0.026 0.035 0.062l0.035 0.062c0.009 0.009 0.009 0.009 0.009 0.018l0.035 0.044c0 0 0.009 0.009 0.009 0.009l0.026 0.035c0.071 0.088 0.124 0.159 0.212 0.229 0.044 0.035 0.062 0.053 0.106 0.088l0.459 0.247 0.397 0.097c0.212 0.035 3.432 0.035 3.644 0 0.079-0.018 0.097-0.035 0.176-0.044 0.185-0.009 0.115-0.018 0.265-0.053 0.026-0.009 0.035-0.009 0.053-0.009 0.035-0.009 0.018-0.009 0.044-0.018 0.018-0.009 0.026-0.018 0.071-0.026 0.176-0.071 0.344-0.168 0.503-0.273 0.044-0.026 0.088-0.062 0.124-0.097l0.018-0.018c0.009-0.009 0.026-0.018 0.035-0.026 0.221-0.203 0.397-0.424 0.529-0.697 0.062-0.124 0.159-0.344 0.176-0.476l0.141-0.512c0.097-0.229 0.168-0.618 0.247-0.856 0.018-0.053 0.009-0.009 0.035-0.071 0.018-0.053 0-0.035 0.018-0.106 0.018-0.106 0.035-0.053 0.053-0.159l0.097-0.344c0.062-0.15-0.018-0.256 0.185-0.256 0.009 0.106 0.009 0.035 0.053 0.115l0.415 0.882c0 0 0.009 0.009 0.009 0.009 0.018 0.035 0 0.009 0.026 0.053 0.009 0.035 0 0.026 0.018 0.062l0.282 0.582c0 0 0 0.009 0.009 0.009l0.106 0.247c0.009 0 0.009 0.009 0.009 0.018 0 0 0.009 0.009 0.009 0.009l0.273 0.582c0.026 0.053 0.035 0.062 0.062 0.124l0.344 0.715c0.009 0.018 0.009 0.035 0.018 0.053l0.229 0.476c0 0.009 0 0.009 0.009 0.018l0.185 0.388c0 0.009 0 0.009 0 0.018l0.485 1.015c0.079 0.159 0.15 0.326 0.265 0.459l0.018 0.018c0 0 0 0.009 0.009 0.009l0.088 0.106c0.15 0.176 0.45 0.353 0.671 0.415 0.071 0.018 0.009 0 0.062 0.018 0.088 0.044 0.168 0.026 0.273 0.053 0.194 0.035 0.309 0 0.512-0.018 0.088-0.009 0.071-0.026 0.15-0.044 0.035-0.018 0.044-0.009 0.079-0.026l0.212-0.097c0.062-0.035 0.088-0.053 0.141-0.079 0.282-0.176 0.538-0.503 0.626-0.812l0.062-0.168c0.044-0.168 0.035-0.573 0-0.741-0.009-0.053-0.035-0.079-0.053-0.132l-0.229-0.547c-0.018-0.026-0.018-0.026-0.035-0.062l-0.291-0.591c-0.018-0.035-0.009-0.026-0.026-0.053l-0.962-1.994c-0.018-0.018-0.009-0.018-0.018-0.035-0.018-0.035-0.009-0.018-0.026-0.062l-0.291-0.582c0-0.009-0.009-0.009-0.009-0.018l-0.159-0.318c0-0.009 0-0.009-0.009-0.018l-0.044-0.088c0-0.009 0-0.009-0.009-0.018l-0.371-0.776c-0.009-0.026-0.026-0.044-0.035-0.071l-0.124-0.256c0-0.009-0.009-0.009-0.009-0.018l-0.291-0.6c0-0.009 0-0.009-0.009-0.018l-0.062-0.132c0 0-0.009-0.009-0.009-0.009l-0.379-0.785c-0.053-0.106-0.168-0.291-0.168-0.406 0.009-0.141 0.053-0.194 0.062-0.309 0.009-0.106 0.018-0.238 0.106-0.3 0.062 0.018 0.079 0.053 0.115 0.106l0.432 0.626c0.062 0.079 0.159 0.141 0.238 0.203 0.035 0.026 0.071 0.062 0.106 0.088 0.026 0.018 0.044 0.018 0.062 0.035 0.035 0.018 0.035 0.026 0.079 0.053 0.009 0.009 0.044 0.026 0.062 0.035l0.15 0.071c0.035 0.009 0 0 0.044 0.018l0.106 0.044c0.115 0.053 0.521 0.141 0.644 0.141h2.356c0.168 0 0.397-0.097 0.547-0.168l0.141-0.079c0.009 0 0.009-0.009 0.018-0.009l0.379-0.379c0.088-0.115 0.141-0.265 0.194-0.406 0.079-0.221 0.088-0.556 0.009-0.794-0.009-0.044 0 0-0.018-0.053-0.088-0.229-0.203-0.441-0.379-0.609l-0.238-0.194c-0.035-0.018-0.035-0.018-0.053-0.026-0.044-0.018-0.026-0.009-0.053-0.026-0.124-0.053-0.344-0.132-0.476-0.15-0.079-0.009-0.203 0-0.291 0h-1.835c-0.026-0.079-0.106-0.194-0.15-0.291l-0.124-0.238c0-0.009-0.009-0.009-0.009-0.018l-1.085-2.082c-0.106-0.168-0.212-0.326-0.353-0.468l-0.565-0.415c-0.044-0.018-0.026-0.018-0.062-0.035-0.026-0.009-0.026-0.009-0.044-0.018-0.185-0.079-0.353-0.15-0.565-0.176s-0.424-0.079-0.635-0.035c-0.053 0.018-0.088 0.018-0.159 0.026-0.141 0.018-0.309 0.053-0.45 0.106l-0.291 0.088c-0.097 0.018-0.062 0.035-0.15 0.053-0.079 0.018-0.062 0.009-0.141 0.044l-0.132 0.035c-0.088 0.035-0.026 0.026-0.141 0.044l-0.291 0.088c-0.053 0.026 0 0.009-0.071 0.035l-0.212 0.062c-0.079 0.026-0.079 0.018-0.15 0.044l-0.406 0.132c-0.079 0.026-0.079 0.009-0.159 0.044l-1.562 0.494c-0.044 0.018-0.018 0.018-0.071 0.035l-0.176 0.044c-0.018 0.009 0.009 0-0.044 0.018l-0.415 0.141c-0.079 0.018-0.062 0.018-0.124 0.053-0.053 0.018-0.026 0.009-0.071 0.035l-0.397 0.265-0.459 0.538c-0.141 0.238-0.168 0.353-0.256 0.6l-0.238 0.9c-0.026 0.071-0.035 0.044-0.053 0.15l-0.15 0.6c-0.035 0.097-0.053 0.221-0.053 0.335z"></path>
<path d="M12.024 24.060c0 0.15 0 0.176 0.071 0.309 0.009 0.009 0.018 0.026 0.026 0.035 0 0.009 0 0.009 0 0.018l0.062 0.097c0.053 0.106 0.115 0.203 0.176 0.3l0.803 1.35c0.026 0.053 0.062 0.097 0.097 0.15 0.035 0.062 0.053 0.097 0.088 0.15 0.035 0.071 0.079 0.115 0.053 0.194s-0.274 0.45-0.344 0.565c-0.009 0.009-0.018 0.018-0.026 0.035s-0.009 0.018-0.018 0.035c-0.018 0.035 0 0-0.026 0.035l-0.132 0.229c-0.018 0.018-0.009 0.018-0.026 0.035l-0.318 0.521c-0.018 0.026 0 0-0.018 0.035l-0.494 0.829c-0.053 0.115-0.018 0.176 0.026 0.265 0.071 0.159 0.247 0.291 0.406 0.335 0.168 0.053 0.238 0.097 0.415 0.009 0.124-0.062 0.176-0.176 0.238-0.282l0.459-0.803c0.018-0.026 0.009-0.018 0.018-0.035l0.6-1.023c0.053 0.044 0.062 0.097 0.097 0.15l0.194 0.326c0 0.009 0 0.009 0 0.018l0.379 0.662c0.035 0.053 0.044 0.088 0.079 0.141l0.256 0.441c0.062 0.115 0.124 0.247 0.212 0.344 0 0.009 0.009 0.009 0.009 0.009 0.088 0.088 0.238 0.132 0.353 0.088 0.062-0.026 0.044-0.018 0.124-0.035 0.229-0.053 0.459-0.256 0.459-0.503 0-0.079-0.018-0.159-0.044-0.212l-0.591-0.971c-0.026-0.044-0.018-0.035-0.044-0.071l-0.168-0.265c0 0 0-0.009 0-0.009l-0.476-0.768c-0.097-0.159-0.106-0.159-0.018-0.326l0.194-0.335c0.018-0.018 0.018-0.026 0.026-0.044l0.556-0.935c0.018-0.026 0.009-0.009 0.026-0.035 0-0.009 0-0.009 0.009-0.018l0.212-0.362c0.009 0 0.009-0.009 0.009-0.009l0.079-0.141c0 0 0.009-0.009 0.009-0.009 0-0.009 0.009-0.009 0.009-0.018l0.097-0.159c0.009-0.018 0.009-0.018 0.018-0.035 0.018-0.026 0.009-0.026 0.018-0.044 0.009-0.009 0.009-0.009 0.009-0.018 0.044-0.097 0.053-0.132 0.053-0.247 0-0.062-0.071-0.15-0.115-0.194 0 0 0-0.009-0.009-0.009l-0.115-0.106c-0.194-0.132-0.591-0.221-0.768 0l-0.309 0.529c-0.018 0.026-0.018 0.018-0.026 0.035l-0.582 1.059c-0.009 0.035 0 0-0.018 0.035l-0.079 0.141c-0.044 0.079-0.071 0.176-0.159 0.203-0.009-0.124-0.115-0.247-0.185-0.362-0.009-0.026-0.026-0.044-0.035-0.071-0.018-0.035-0.026-0.044-0.035-0.071l-0.176-0.309c0 0 0-0.009-0.009-0.009l-0.079-0.141c0-0.018-0.018-0.035-0.018-0.035l-0.053-0.106c-0.026-0.035-0.009 0-0.026-0.035l-0.353-0.635c-0.115-0.185-0.168-0.362-0.45-0.362-0.159 0-0.309 0.035-0.432 0.124-0.079 0.053-0.247 0.194-0.247 0.318z"></path>
<path d="M16.903 4.941c0-0.212 0.035-0.406 0.097-0.591l0.15-0.291c0.124-0.176 0.282-0.335 0.468-0.45l0.291-0.15c0.265-0.115 0.706-0.141 0.962-0.044 0.018 0.009 0.053 0.018 0.071 0.026l0.132 0.044c0.026 0.009 0.035 0.018 0.062 0.026 0.026 0.018 0.026 0.018 0.062 0.035 0.018 0.009 0.035 0.018 0.053 0.026 0 0 0.009 0 0.009 0.009l0.159 0.106c0.018 0.009 0.018 0.018 0.044 0.035l0.212 0.221c0.035 0.035 0.062 0.071 0.079 0.106l0.265 0.635v0.503l-0.062 0.194c-0.018 0.106-0.079 0.203-0.124 0.3-0.159 0.318-0.494 0.591-0.829 0.706-0.062 0.026-0.071 0.009-0.141 0.044-0.088 0.035-0.044 0.026-0.168 0.035-0.141 0-0.185 0.026-0.344 0-0.071-0.009-0.106 0-0.176 0-0.106-0.009-0.106-0.044-0.203-0.062l-0.212-0.088c-0.035-0.009-0.071-0.035-0.115-0.062l-0.309-0.247-0.326-0.494-0.071-0.229c-0.018-0.079-0.035-0.256-0.035-0.344zM15.897 4.729c0 0.45-0.026 0.291 0.053 0.626 0.035 0.124-0.009 0.124 0.044 0.256 0.018 0.035 0.009 0 0.018 0.035s0.009 0.044 0.018 0.071c0.035 0.15 0.15 0.371 0.229 0.503 0.079 0.15 0.185 0.282 0.3 0.406l0.168 0.168c0.018 0.018 0.018 0.018 0.026 0.026l0.679 0.441 0.326 0.115c0.106 0.018 0.141 0.062 0.238 0.062l0.662 0.044c0.088 0 0.062-0.035 0.176-0.044 0.106 0 0.124 0 0.212-0.026 0.071-0.026 0.115-0.026 0.176-0.044l0.785-0.415c0 0 0-0.009 0.009-0.009 0.221-0.185 0.441-0.388 0.591-0.644 0 0 0.009-0.009 0.009-0.009l0.018-0.026c0.018-0.035 0-0.009 0.018-0.044 0.009-0.009 0.018-0.018 0.026-0.035l0.3-0.812c0.018-0.088 0.009-0.141 0.009-0.229 0.009-0.097 0.026-0.097 0.026-0.203l-0.097-0.723c-0.053-0.247-0.212-0.556-0.362-0.75-0.124-0.176-0.291-0.379-0.476-0.521-0.221-0.176-0.476-0.344-0.741-0.423-0.071-0.018-0.035-0.009-0.088-0.035-0.062-0.026-0.018-0.009-0.097-0.018-0.124-0.026-0.115-0.053-0.273-0.062-0.221-0.009-0.194-0.079-0.644-0.035-0.088 0-0.088 0.026-0.176 0.035-0.124 0.009-0.106-0.018-0.212 0.026l-0.238 0.079c-0.009 0-0.009 0.009-0.018 0.009l-0.662 0.353c0 0-0.009 0.009-0.009 0.009l-0.088 0.062c0 0 0 0.009-0.009 0.009l-0.45 0.485c0 0.009 0 0.009-0.009 0.018 0 0 0 0.009 0 0.009l-0.397 0.847-0.071 0.415z"></path>
<path d="M8.089 23.98v5.311c0 0.168 0.274 0.3 0.362 0.3h3.035c0.203 0 0.318-0.326 0.318-0.424 0-0.141-0.018-0.282-0.097-0.397-0.053-0.071-0.132-0.132-0.238-0.141-0.353-0.018-1.473 0-1.941 0-0.176 0-0.335 0.035-0.335-0.062v-1.456c0-0.097 0.238-0.062 0.441-0.062 0.194 0 0.82 0.044 0.944-0.062l0.106-0.124c0.009-0.018 0.018-0.062 0.035-0.088 0.071-0.168 0.026-0.238-0.026-0.388-0.106-0.256-0.309-0.194-0.565-0.194h-0.741c-0.088 0-0.194 0.026-0.194-0.062v-1.456c0-0.097 0.15-0.062 0.318-0.062h1.95c0.115-0.018 0.194-0.053 0.256-0.15 0.018-0.044 0.035-0.106 0.053-0.15 0.071-0.185 0.044-0.229-0.009-0.388-0.044-0.132-0.062-0.176-0.194-0.247-0.053-0.035-0.053-0.044-0.115-0.044h-2.938c-0.071 0-0.424 0.088-0.424 0.344z"></path>
<path d="M18.518 23.998c0 0.212-0.035 0.406 0.15 0.565 0.035 0.044 0.124 0.097 0.185 0.097h1.165v4.588c0 0.071 0.018 0.088 0.044 0.132 0.044 0.062 0.026 0.053 0.088 0.097 0.062 0.053 0.053 0.026 0.132 0.062 0.168 0.071 0.009 0.053 0.415 0.053 0.088 0 0.106-0.026 0.194-0.062 0.053-0.018 0.018 0 0.071-0.035l0.106-0.097c0 0 0 0 0.009-0.009l0.018-0.018c0.018-0.044 0.018-0.009 0.018-0.079v-4.632h1.156c0.159 0 0.344-0.212 0.344-0.344 0-0.256 0.026-0.326-0.053-0.468 0-0.009 0-0.009 0-0.018-0.062-0.106-0.079-0.115-0.15-0.15-0.044-0.018-0.079-0.044-0.141-0.044h-3.432c-0.062 0 0.009-0.009-0.115 0.044-0.115 0.062-0.115 0.097-0.159 0.185-0.026 0.053-0.044 0.062-0.044 0.132z"></path>
<path d="M16.877 24.113c0 0.609-0.026 4.985 0.018 5.197 0.018 0.053 0.018 0.079 0.079 0.141 0.221 0.212 0.829 0.203 0.979-0.106 0.035-0.071 0.026-0.097 0.026-0.194v-4.297c0-0.282 0.009-0.582 0-0.856 0-0.053 0-0.044-0.018-0.088-0.053-0.159-0.203-0.203-0.309-0.229-0.229-0.071-0.247-0.053-0.468 0-0.124 0.035-0.15 0.035-0.238 0.132-0.035 0.044-0.026 0.026-0.044 0.071-0.018 0.053-0.026 0.168-0.026 0.229z"></path>
<path stroke-linejoin="miter" stroke-linecap="butt" stroke-miterlimit="4" stroke-width="1.2612" d="M1.199 0.979h5.955v-0.953h-5.955c-0.644 0-1.173 0.529-1.173 1.173v29.6c0 0.644 0.529 1.173 1.173 1.173h29.574c0.653 0 1.182-0.529 1.182-1.173v-7.79h-0.953v7.79c0 0.124-0.097 0.221-0.229 0.221h-29.574c-0.124 0-0.221-0.097-0.221-0.221v-29.6c0-0.124 0.097-0.221 0.221-0.221zM31.955 21.492v-20.292c0-0.644-0.529-1.173-1.182-1.173h-22.030v0.953h22.030c0.132 0 0.229 0.097 0.229 0.221v20.292h0.953z"></path>
</symbol>
<symbol id="icon-LOGOblack" viewBox="0 0 74 32">
<path fill="#434242" style="fill: var(--color1, #434242)" d="M0 11.451v15.343c0.714 0.178 2.498 0.357 3.211-0.178 0-4.282 0-8.92 0.178-13.023 0.178 1.070 2.141 10.347 2.498 12.31 0 1.070 0 1.070 2.319 1.070 0.892 0 0.714-0.535 0.892-1.427 0.178-1.249 0.535-2.676 0.714-4.103 0.535-2.676 1.249-5.174 1.606-7.85v12.131c0 1.249 0 1.249 1.070 1.249 0.714 0 1.427 0 2.141-0.178v-19.446c0-1.427-0.714-0.892-3.39-0.892-1.784 0-1.249-0.357-1.784 2.319-0.178 1.249-0.535 2.498-0.714 3.568-0.357 2.319-0.892 4.817-1.427 7.136l-2.319-11.953c-0.178-1.427 0-1.070-2.854-1.070-2.498 0-2.141-0.892-2.141 4.995z"></path>
<path fill="#e31e24" style="fill: var(--color2, #e31e24)" d="M38.713 29.113c-6.958 0-13.38 0.178-20.338 0.714-3.033 0.178-16.413 1.249-18.376 2.141h73.68c-0.178 0 0 0-0.357 0l-0.535-0.178c-5.531-0.892-10.169-1.606-15.699-1.962-6.244-0.357-12.131-0.714-18.376-0.714z"></path>
<path fill="#434242" style="fill: var(--color1, #434242)" d="M19.803 19.836c0 7.315-0.535 7.136 1.606 7.136 0.892 0 1.249 0 1.784-0.178 0.178-2.141 0-4.817 0-6.958 0-1.249 0.892-3.211 1.249-4.46l2.498-7.671c0.357-1.070 0.714-1.249-1.427-1.249-0.535 0-1.249 0-1.784 0-0.357 0.535-1.784 7.136-2.141 8.207-0.357-0.357-1.249-4.282-1.249-4.638-0.178-0.714-0.535-1.606-0.714-2.319-0.357-1.606 0.178-1.249-2.854-1.249-1.427 0-1.427-0.178-0.357 2.676 0.892 2.141 3.39 9.099 3.39 10.704z"></path>
<path fill="#434242" style="fill: var(--color1, #434242)" d="M54.235 7.704v19.089c0.535 0.178 1.606 0.178 2.319 0.178 1.427 0 1.070-0.714 1.070-3.211v-5.53c0.357 0 4.282 0 4.46-0.178l0.178-0.892c0-2.498 0.178-2.141-1.249-2.141h-3.39v-5.352h4.638c1.249 0 0.892-0.535 0.892-2.319 0-1.249-0.535-0.892-3.033-0.892-1.249 0-2.498 0-3.746 0-2.498 0-2.141-0.178-2.141 1.249z"></path>
<path fill="#434242" style="fill: var(--color1, #434242)" d="M64.225 9.31c0.357 0.535 2.498 0.357 3.211 0.357 0.178 3.211 0 10.169 0 13.559v3.568c0.714 0.178 2.498 0.178 3.211 0 0.357-4.995 0-11.775 0.178-17.127 0.892-0.178 2.498 0.178 3.39-0.178 0.178-0.535 0-2.319 0-3.033-2.319-0.178-6.422 0-8.92 0-0.892 0-1.249-0.178-1.427 0.714 0 0.714 0 1.962 0.357 2.141z"></path>
<path fill="#434242" style="fill: var(--color1, #434242)" d="M32.469 8.775v18.019c0.714 0.357 6.244 0.178 7.315 0.178 0.714 0 1.070 0.178 1.427-0.178s0.178-2.319 0-2.676c-0.357-0.357-4.638-0.178-5.352-0.178 0-5.53 0-11.775 0-17.483-0.535 0-2.319-0.178-2.854 0-0.892 0.178-0.535 0.892-0.535 2.319z"></path>
<path fill="#434242" style="fill: var(--color1, #434242)" d="M47.634 9.131c1.962 0.714 1.427 1.427 1.427 5.174v5.174c0 2.141 0.714 5.174-2.141 4.638l-0.357 3.033c1.427 0.535 3.39-0.178 4.638-1.427 1.606-1.606 1.249-3.925 1.249-6.779v-7.493c0-2.498-0.892-4.995-3.568-5.352-0.535 0.892-1.070 1.784-1.249 3.033z"></path>
<path fill="#727271" style="fill: var(--color3, #727271)" d="M45.85 27.15c0.178-0.535 1.070-9.634 1.249-11.775 0-0.357 0.178-0.714 0.178-0.892 0.357-1.606 0.892 0.178 0.714-2.498 0 0-1.606 0.357-3.033 0.357s-2.141-0.178-3.39-0.357c0.178 3.39 0.357-0.535 0.714 4.103 0 1.962 0 7.671 0.714 9.099 0.357 0.892 1.427 1.962 2.854 1.962z"></path>
<path fill="#727271" style="fill: var(--color3, #727271)" d="M44.066 9.845h2.319c0.357-0.714 0.535-1.606 0.892-2.498 0.535-1.427 1.606-2.319 3.033-3.033 0.714-0.535 1.427-0.714 2.319-1.070v-2.319c-2.141 0.178-4.46 1.606-5.709 3.033-0.892 0.892-1.427 1.427-1.962 2.498-0.357 1.070-0.714 2.141-0.892 3.39z"></path>
<path fill="#727271" style="fill: var(--color3, #727271)" d="M61.192 0.568c0.357 0.535 0.178 2.498 0 3.033v-3.033zM60.835 0.568c-1.784 0-6.244 0-7.493 0.357v2.319h7.493l0.357 0.714h1.070c0.178-1.249 0.178-2.676 0-3.925h-1.249l-0.178 0.535z"></path>
<path fill="#727271" style="fill: var(--color3, #727271)" d="M62.62 1.995c0 0.714 0 1.606 0 1.784 0.892 0-0.178-0.714 1.784-0.535 0.178 0.178 0 0.178 0.178 0.357 0 0.178 0 0.178 0 0.178v0h0.178c0 0 0.357 0.178 0.892 0.178v0c0.357 0 0.535 0 0.714-0.178 0.357 0 0.714 0 1.070 0 0-0.178 0.178-0.357 0.178-0.535 0.178-0.357 0.178-0.892 0.178-1.249 0-0.535 0-0.892-0.178-1.249 0-0.178-0.178-0.535-0.178-0.535-0.357-0.178-0.714-0.178-1.070-0.178-0.178 0-0.357 0-0.714 0v0c-0.535 0-0.892 0-0.892 0h-0.178v0.178c0 0 0 0 0 0-0.178 0.178 0 0.178-0.178 0.357-1.962 0.178-0.892-0.357-1.784-0.357 0 0.178 0 0.892 0 1.784z"></path>
<path fill="#727271" style="fill: var(--color3, #727271)" d="M42.103 11.451c1.070 0.535 4.282 0.535 5.352 0v-1.427c-0.357 0-1.606 0.178-2.498 0.178-1.249 0-1.784-0.178-2.854-0.357v1.606z"></path>
<path fill="#727271" style="fill: var(--color3, #727271)" d="M61.192 3.601c0.178-0.535 0.357-2.498 0-3.033v3.033z"></path>
</symbol>
<symbol id="icon-logogrey" viewBox="0 0 74 32">
<path fill="#fefefe" style="fill: var(--color4, #fefefe)" d="M0 11.403l0.074 15.299c0.662 0.294 2.501 0.368 3.163-0.074 0.074-4.266-0.074-8.974 0.074-13.093 0.368 1.103 2.28 10.298 2.501 12.284 0.147 1.103 0.147 1.103 2.28 1.030 0.956 0 0.883-0.441 1.030-1.324 0.221-1.324 0.441-2.721 0.736-4.119 0.441-2.574 1.103-5.222 1.545-7.87v12.21c0 1.103 0 1.103 1.177 1.103 0.662 0 1.398 0.074 2.059-0.074l0.074-19.418c0-1.471-0.809-0.956-3.457-0.956-1.765 0-1.25-0.368-1.839 2.427-0.221 1.177-0.441 2.354-0.662 3.531-0.441 2.207-0.883 4.855-1.398 6.988l-2.28-11.916c-0.221-1.324-0.147-1.030-2.942-1.030-2.501 0-2.133-0.956-2.133 5.002z"></path>
<path fill="#e31e24" style="fill: var(--color2, #e31e24)" d="M38.616 29.056c-6.84 0-13.387 0.221-20.154 0.662-3.089 0.221-16.55 1.25-18.388 2.28h73.554c-0.147-0.074-0.074-0.074-0.294-0.147l-0.736-0.147c-5.369-0.956-10.15-1.471-15.667-1.839-6.179-0.441-12.063-0.809-18.315-0.809z"></path>
<path fill="#fefefe" style="fill: var(--color4, #fefefe)" d="M19.786 19.714c0 7.429-0.588 7.135 1.618 7.135 0.809 0 1.177 0.147 1.692-0.147 0.147-2.059 0.074-4.707 0.074-6.84 0-1.398 0.883-3.31 1.25-4.56l2.501-7.576c0.368-1.103 0.736-1.398-1.398-1.324-0.588 0-1.177-0.074-1.765 0-0.368 0.515-1.912 7.061-2.133 8.164-0.368-0.368-1.25-4.119-1.398-4.634-0.147-0.736-0.368-1.471-0.588-2.207-0.441-1.618 0.147-1.324-2.869-1.324-1.471 0-1.398-0.074-0.368 2.722 0.809 2.133 3.383 9.121 3.383 10.592z"></path>
<path fill="#fefefe" style="fill: var(--color4, #fefefe)" d="M54.062 7.725l0.074 19.050c0.662 0.147 1.618 0.074 2.354 0.074 1.398 0.074 1.030-0.736 1.030-3.163l-0.074-5.517c0.515-0.074 4.487 0 4.634-0.221l0.147-0.883c0-2.354 0.221-2.059-1.25-2.059h-3.457l-0.074-5.443h4.855c1.103 0 0.809-0.515 0.809-2.207 0-1.398-0.588-0.956-3.089-0.956-1.25 0-2.427 0-3.604 0-2.648 0-2.354-0.221-2.354 1.324z"></path>
<path fill="#fefefe" style="fill: var(--color4, #fefefe)" d="M64.139 9.343c0.294 0.368 2.501 0.221 3.163 0.221 0.147 3.31 0.074 10.224 0 13.534l0.074 3.604c0.736 0.294 2.427 0.221 3.236 0.074 0.294-5.075 0-11.842 0.074-17.212 1.030-0.074 2.648 0.221 3.383-0.147 0.221-0.588 0.074-2.207 0.074-2.942-2.28-0.221-6.473-0.074-8.9-0.074-0.883 0-1.324-0.221-1.398 0.809 0 0.588-0.147 1.765 0.294 2.133z"></path>
<path fill="#fefefe" style="fill: var(--color4, #fefefe)" d="M32.437 8.681v18.021c0.736 0.368 6.252 0.147 7.355 0.147 0.588 0.074 1.030 0.221 1.324-0.221 0.294-0.294 0.221-2.133 0-2.574-0.294-0.441-4.634-0.221-5.296-0.221-0.074-5.59 0.074-11.695 0-17.359-0.515-0.147-2.28-0.147-2.869-0.074-0.809 0.074-0.515 0.883-0.515 2.28z"></path>
<path fill="#fefefe" style="fill: var(--color4, #fefefe)" d="M47.516 9.049c1.986 0.736 1.471 1.471 1.471 5.149v5.149c0 2.207 0.736 5.222-2.059 4.707l-0.368 3.016c1.471 0.588 3.31-0.147 4.56-1.324 1.618-1.765 1.25-4.045 1.25-6.84v-7.503c0-2.501-0.883-4.928-3.604-5.296-0.441 0.883-1.030 1.765-1.25 2.942z"></path>
<path fill="#c5c6c6" style="fill: var(--color5, #c5c6c6)" d="M45.824 27.070c0.221-0.441 1.030-9.709 1.25-11.695 0.074-0.368 0.074-0.662 0.147-0.956 0.294-1.618 0.883 0.147 0.736-2.501-0.074 0-1.545 0.441-3.089 0.441-1.471 0-2.059-0.294-3.31-0.515 0.074 3.457 0.368-0.368 0.662 4.266 0.074 1.839 0.074 7.576 0.662 8.974 0.441 1.030 1.545 1.986 2.942 1.986z"></path>
<path fill="#c5c6c6" style="fill: var(--color5, #c5c6c6)" d="M43.985 9.711l2.354 0.074c0.294-0.662 0.441-1.618 0.809-2.427 0.662-1.471 1.692-2.354 3.016-3.163 0.883-0.515 1.545-0.588 2.354-0.956l0.074-2.354c-2.133 0.294-4.487 1.545-5.811 3.016-0.736 0.883-1.25 1.398-1.765 2.574-0.515 1.030-0.883 2.133-1.030 3.236z"></path>
<path fill="#c5c6c6" style="fill: var(--color5, #c5c6c6)" d="M61.197 0.59c0.294 0.441 0.147 2.501-0.074 3.016l0.074-3.016zM60.682 0.59c-1.692 0-6.031-0.147-7.355 0.294v2.427l7.355-0.074 0.368 0.662h1.103c0.221-1.177 0.147-2.721-0.074-3.898h-1.103l-0.294 0.588z"></path>
<path fill="#c5c6c6" style="fill: var(--color5, #c5c6c6)" d="M62.521 1.914c0 0.809 0 1.618 0 1.765 1.030 0-0.147-0.588 1.912-0.441 0.074 0.221 0 0.221 0.074 0.368 0 0.074 0 0.074 0.074 0.147v0h0.074c0.074 0.074 0.368 0.074 0.956 0.074h0.074c0.221 0 0.441 0 0.662 0 0.368 0 0.662 0 1.030-0.074 0.074-0.147 0.074-0.368 0.147-0.588 0.147-0.368 0.221-0.809 0.221-1.25s-0.074-0.883-0.221-1.25c-0.074-0.221-0.074-0.368-0.147-0.588-0.368 0-0.662-0.074-1.030-0.074-0.221 0-0.441 0-0.662 0h-0.074c-0.588 0-0.883 0-0.956 0.074h-0.074v0.074c-0.074 0-0.074 0.074-0.074 0.074-0.074 0.221 0 0.221-0.074 0.368-2.059 0.147-0.883-0.368-1.912-0.441 0 0.147 0 0.956 0 1.765z"></path>
<path fill="#c5c6c6" style="fill: var(--color5, #c5c6c6)" d="M42.146 11.403c1.030 0.588 4.266 0.588 5.296 0.074v-1.545c-0.441 0-1.765 0.294-2.574 0.294-1.25 0-1.765-0.221-2.795-0.368l0.074 1.545z"></path>
<path fill="#c5c6c6" style="fill: var(--color5, #c5c6c6)" d="M61.123 3.606c0.221-0.515 0.368-2.574 0.074-3.016l-0.074 3.016z"></path>
</symbol>
<symbol id="icon-LOGOwhite" viewBox="0 0 74 32">
<path fill="#fefefe" style="fill: var(--color4, #fefefe)" d="M0 11.384v15.205c0.724 0.362 2.534 0.362 3.258 0 0-4.344 0-8.87 0-13.033 0.362 1.086 2.353 10.137 2.534 12.309 0.181 1.086 0.181 1.086 2.353 0.905 0.905 0 0.905-0.362 0.905-1.267 0.362-1.448 0.543-2.715 0.724-4.163 0.543-2.534 1.267-5.249 1.629-7.784v12.128c0 1.086 0 1.086 1.086 1.086 0.724 0 1.448 0.181 2.172 0v-19.368c0-1.448-0.724-1.086-3.439-1.086-1.629 0-1.267-0.362-1.81 2.534-0.181 1.086-0.362 2.353-0.724 3.439-0.362 2.353-0.724 4.887-1.267 7.060l-2.353-11.947c-0.181-1.267-0.181-1.086-2.896-1.086-2.534 0-2.172-0.905-2.172 5.068z"></path>
<path fill="#e31e24" style="fill: var(--color2, #e31e24)" d="M38.556 28.942c-6.879 0-13.395 0.362-20.093 0.724-3.077 0.181-16.472 1.267-18.463 2.353h73.492c0-0.181 0-0.181-0.181-0.181l-0.724-0.181c-5.43-0.905-10.137-1.448-15.748-1.81-6.154-0.362-11.947-0.905-18.282-0.905z"></path>
<path fill="#fefefe" style="fill: var(--color4, #fefefe)" d="M19.73 19.711c0 7.422-0.543 7.060 1.629 7.060 0.905 0 1.267 0.181 1.81-0.181 0-1.991 0-4.706 0-6.697 0-1.448 0.905-3.439 1.267-4.706l2.534-7.422c0.362-1.267 0.724-1.448-1.448-1.448-0.543 0-1.267 0-1.81 0-0.362 0.543-1.81 7.060-2.172 8.327-0.181-0.543-1.267-4.344-1.267-4.706-0.181-0.724-0.362-1.448-0.724-2.172-0.362-1.629 0.181-1.448-2.715-1.448-1.448 0-1.448 0-0.362 2.715 0.724 2.172 3.258 9.232 3.258 10.68z"></path>
<path fill="#fefefe" style="fill: var(--color4, #fefefe)" d="M54.123 7.764v19.006c0.724 0.181 1.629 0 2.353 0 1.448 0 0.905-0.724 0.905-3.077v-5.611c0.543 0 4.525 0 4.706-0.181v-0.905c0-2.353 0.362-1.991-1.086-1.991h-3.62v-5.43h4.887c1.086 0 0.724-0.543 0.724-2.172 0-1.448-0.543-1.086-3.077-1.086-1.086 0-2.353 0-3.62 0-2.534 0-2.172-0.181-2.172 1.448z"></path>
<path fill="#fefefe" style="fill: var(--color4, #fefefe)" d="M64.079 9.393c0.362 0.362 2.534 0.181 3.258 0.181 0.181 3.258 0 10.137 0 13.395v3.801c0.724 0.181 2.534 0.181 3.258 0 0.181-5.068 0-11.766 0-17.196 1.086-0.181 2.715 0.181 3.439-0.181 0.181-0.543 0-2.172 0-2.896-2.172-0.362-6.335-0.181-8.87-0.181-0.724 0-1.267-0.181-1.267 0.905 0 0.543-0.181 1.81 0.181 2.172z"></path>
<path fill="#fefefe" style="fill: var(--color4, #fefefe)" d="M32.401 8.669v18.101c0.724 0.181 6.336 0 7.422 0 0.543 0 0.905 0.181 1.267-0.181s0.181-2.172 0-2.534c-0.362-0.543-4.706-0.181-5.249-0.181-0.181-5.611 0-11.766 0-17.377-0.543-0.181-2.353-0.181-2.896-0.181-0.724 0.181-0.543 0.905-0.543 2.353z"></path>
<path fill="#fefefe" style="fill: var(--color4, #fefefe)" d="M47.426 9.031c1.991 0.724 1.629 1.448 1.629 5.068v5.249c0 2.172 0.543 5.249-2.172 4.706l-0.362 2.896c1.448 0.724 3.439 0 4.525-1.267 1.629-1.629 1.267-3.982 1.267-6.879v-7.422c0-2.534-0.905-4.887-3.62-5.249-0.362 0.905-1.086 1.629-1.267 2.896z"></path>
<path fill="#2b2a29" style="fill: var(--color6, #2b2a29)" d="M45.797 27.132c0.181-0.543 1.086-9.775 1.267-11.766 0-0.362 0-0.724 0.181-1.086 0.181-1.448 0.905 0.181 0.724-2.353-0.181 0-1.629 0.362-3.077 0.362s-2.172-0.181-3.439-0.362c0.181 3.439 0.543-0.543 0.724 4.163 0.181 1.81 0 7.603 0.724 8.87 0.362 1.086 1.448 1.991 2.896 2.172z"></path>
<path fill="#2b2a29" style="fill: var(--color6, #2b2a29)" d="M43.986 9.755h2.353c0.362-0.724 0.362-1.629 0.724-2.353 0.724-1.448 1.81-2.353 3.077-3.258 0.905-0.543 1.629-0.543 2.353-0.905v-2.353c-2.172 0.181-4.344 1.629-5.792 3.077-0.724 0.724-1.267 1.267-1.81 2.534-0.362 0.905-0.724 1.991-0.905 3.258z"></path>
<path fill="#2b2a29" style="fill: var(--color6, #2b2a29)" d="M61.183 0.523c0.181 0.543 0.181 2.534 0 3.077v-3.077zM60.64 0.523c-1.629 0-5.973 0-7.241 0.362v2.353h7.241l0.362 0.543h1.086c0.181-1.086 0.181-2.715 0-3.801h-1.086l-0.362 0.543z"></path>
<path fill="#2b2a29" style="fill: var(--color6, #2b2a29)" d="M62.45 1.971c0 0.724 0 1.629 0 1.629 1.086 0-0.181-0.543 1.991-0.362 0 0.181 0 0.181 0 0.362 0 0 0 0 0 0.181h0.181c0.181 0 0.362 0 0.905 0h0.181c0.181 0 0.362 0 0.543 0 0.362 0 0.724 0 1.086 0 0-0.181 0.181-0.362 0.181-0.543 0.181-0.543 0.181-0.905 0.181-1.267 0-0.543 0-0.905-0.181-1.267 0-0.362-0.181-0.543-0.181-0.543-0.362-0.181-0.724-0.181-1.086-0.181-0.181 0-0.362 0-0.543 0h-0.181c-0.543 0-0.724 0-0.905 0v0l-0.181 0.181c0 0 0 0 0 0 0 0.181 0 0.181 0 0.362-2.172 0.181-0.905-0.362-1.991-0.362 0 0.181 0 0.905 0 1.81z"></path>
<path fill="#2b2a29" style="fill: var(--color6, #2b2a29)" d="M42.176 11.384c0.905 0.543 4.163 0.543 5.249 0v-1.448c-0.362 0-1.81 0.362-2.534 0.181-1.267 0-1.81-0.181-2.896-0.362l0.181 1.629z"></path>
<path fill="#2b2a29" style="fill: var(--color6, #2b2a29)" d="M61.183 3.601c0.181-0.543 0.181-2.534 0-3.077v3.077z"></path>
</symbol>
<symbol id="icon-IconSendMe" viewBox="0 0 25 32">
<path fill="#1b1927ff" style="fill: var(--color1, #1b1927ff); stroke: var(--color2, #2b2a29)" stroke="#2b2a29" stroke-linejoin="miter" stroke-linecap="butt" stroke-miterlimit="4" stroke-width="0.5658" d="M1.956 0h21.237c1.099 0 1.967 0.926 1.967 1.967v5.671c0 1.042-0.868 1.91-1.967 1.91h-21.237c-1.042 0-1.967-0.868-1.967-1.91v-5.671c0-1.042 0.926-1.967 1.967-1.967z"></path>
<path fill="#d9dada" style="fill: var(--color3, #d9dada)" d="M3.866 3.472h-1.389v-0.521c0-0.231-0.058-0.347-0.058-0.405-0.058-0.058-0.116-0.116-0.174-0.116-0.116 0-0.174 0.058-0.231 0.116-0.058 0.116-0.058 0.231-0.058 0.405 0 0.231 0 0.405 0.058 0.521s0.174 0.231 0.463 0.405c0.637 0.463 1.042 0.81 1.215 1.157 0.174 0.289 0.289 0.752 0.289 1.389 0 0.521-0.058 0.868-0.174 1.099-0.058 0.231-0.289 0.405-0.521 0.579-0.289 0.116-0.637 0.231-0.984 0.231-0.405 0-0.752-0.116-1.042-0.289s-0.463-0.405-0.521-0.694c-0.116-0.231-0.174-0.637-0.174-1.157v-0.463h1.389v0.868c0 0.231 0.058 0.405 0.058 0.463 0.058 0.058 0.116 0.116 0.231 0.116s0.174-0.058 0.231-0.116c0.058-0.116 0.058-0.231 0.058-0.405 0-0.405-0.058-0.694-0.116-0.81-0.116-0.116-0.347-0.347-0.694-0.637-0.405-0.289-0.637-0.463-0.752-0.579-0.116-0.174-0.231-0.347-0.289-0.579-0.116-0.231-0.116-0.521-0.116-0.868 0-0.521 0-0.868 0.116-1.157 0.116-0.231 0.347-0.405 0.579-0.521 0.231-0.174 0.579-0.231 0.926-0.231s0.694 0.116 0.984 0.231c0.289 0.174 0.463 0.347 0.521 0.579 0.116 0.231 0.174 0.579 0.174 1.099v0.289zM4.444 1.447h2.488v1.331h-0.984v1.273h0.926v1.273h-0.926v1.505h1.099v1.331h-2.604v-6.712zM10.868 1.447v6.712h-1.331l-0.81-3.067v3.067h-1.215v-6.712h1.215l0.868 3.009v-3.009h1.273zM11.446 1.447h1.157c0.694 0 1.215 0 1.447 0.116 0.231 0.058 0.463 0.174 0.579 0.347s0.231 0.405 0.231 0.579c0.058 0.231 0.058 0.694 0.058 1.331v2.373c0 0.579 0 0.984-0.058 1.215-0.058 0.174-0.116 0.347-0.231 0.463s-0.289 0.174-0.463 0.231c-0.174 0.058-0.463 0.058-0.81 0.058h-1.91v-6.712zM12.951 2.604v4.398c0.231 0 0.347-0.058 0.405-0.116 0.058-0.116 0.058-0.405 0.058-0.868v-2.604c0-0.289 0-0.521 0-0.579 0-0.116-0.058-0.174-0.116-0.174-0.058-0.058-0.174-0.058-0.347-0.058zM21.457 1.447v6.712h-1.331v-4.571l-0.521 4.571h-0.926l-0.579-4.456v4.456h-1.331v-6.712h1.967c0.058 0.405 0.116 0.868 0.174 1.389l0.231 1.736 0.347-3.125h1.967zM22.036 1.447h2.488v1.331h-0.984v1.273h0.926v1.273h-0.926v1.505h1.099v1.331h-2.604v-6.712z"></path>
<path fill="#fcd5a6" style="fill: var(--color4, #fcd5a6)" d="M18.506 14.467c0.81 0 1.447 0.579 1.447 1.331v4.629c0 0.868 0 1.794 0 2.662 0.058 1.273-0.405 1.967-1.505 1.852v0 1.447h-7.87v-1.505c-0.694-0.174-1.389-0.637-1.967-1.794-1.736-3.588-2.604-5.439-3.356-7.58 1.736-1.215 2.835-0.231 3.646 2.141v-10.184c0-0.752 0.579-1.331 1.331-1.331 0.694 0 1.331 0.579 1.331 1.331v6.481c0.116-0.637 0.694-1.042 1.389-1.042 0.752 0 1.389 0.579 1.389 1.273v0.521c0.116-0.579 0.694-1.042 1.389-1.042 0.81 0 1.447 0.579 1.447 1.331v0.405c0.174-0.521 0.694-0.926 1.331-0.926z"></path>
<path fill="#e31e24" style="fill: var(--color5, #e31e24)" d="M9.71 26.329h9.953v1.852h-9.953z"></path>
<path fill="#c02222" style="fill: var(--color6, #c02222)" d="M9.942 28.123h9.374v3.877h-9.374z"></path>
</symbol>






<symbol id="icon-Property-1Default" viewBox="0 0 32 32">
<path d="M16 5.496l-1.434-1.474c-3.366-3.46-9.538-2.266-11.766 2.084-1.046 2.046-1.282 5 0.628 8.77 1.84 3.63 5.668 7.978 12.572 12.714 6.904-4.736 10.73-9.084 12.572-12.714 1.91-3.772 1.676-6.724 0.628-8.77-2.228-4.35-8.4-5.546-11.766-2.086l-1.434 1.476zM16 30c-30.666-20.264-9.442-36.080-0.352-27.714 0.12 0.111 0.237 0.225 0.352 0.342 0.113-0.118 0.23-0.232 0.352-0.34 9.088-8.372 30.314 7.446-0.352 27.712z"></path>
</symbol>
<symbol id="icon-Property-1Active" viewBox="0 0 32 32">
<path d="M16 2.628c8.876-9.124 31.068 6.842 0 27.372-31.068-20.528-8.876-36.496 0-27.372z"></path>
</symbol>
</defs>
</svg>
