<svg aria-hidden="true" style="position: absolute; width: 0; height: 0; overflow: hidden;" version="1.1" xmlns="http://www.w3.org/2000/svg" xmlns:xlink="http://www.w3.org/1999/xlink">
<defs>
<symbol id="icon-logoMenu" viewBox="0 0 62 32">
<path fill="#1b1927ff" style="fill: var(--color1, #1b1927ff)" d="M3.696 0.035h54.103c2.070 0 3.843 1.774 3.843 3.843v10.939c0 2.070-1.774 3.843-3.843 3.843h-54.103c-2.070 0-3.696-1.626-3.696-3.843v-10.939c0-2.070 1.626-3.843 3.696-3.843z"></path>
<path fill="#ebecec" style="fill: var(--color2, #ebecec)" d="M32.078 2.992v12.713h-2.513v-8.574l-1.035 8.574h-1.774l-1.035-8.426v8.426h-2.513v-12.713h3.696c0.148 0.739 0.296 1.626 0.443 2.661l0.296 3.252 0.739-5.913h3.696zM34.886 2.992h4.73v2.513h-1.922v2.513h1.774v2.365h-1.774v2.809h2.070v2.513h-4.878v-12.713zM48.634 2.992v12.713h-2.513l-1.478-5.765v5.765h-2.365v-12.713h2.365l1.626 5.765v-5.765h2.365zM57.799 2.992v8.574c0 0.887 0 1.626 0 2.070-0.148 0.296-0.296 0.739-0.591 1.183-0.148 0.443-0.591 0.739-1.035 0.887-0.443 0.296-0.887 0.296-1.478 0.296-0.739 0-1.183-0.148-1.774-0.296-0.443-0.296-0.887-0.591-1.035-1.035-0.296-0.443-0.443-0.887-0.443-1.33-0.148-0.443-0.148-1.33-0.148-2.809v-7.539h2.809v9.609c0 0.591 0.148 0.887 0.148 1.035s0.148 0.296 0.296 0.296c0.148 0 0.296-0.148 0.296-0.296 0.148-0.148 0.148-0.591 0.148-1.183v-9.461h2.809z"></path>
<path fill="#ebecec" style="fill: var(--color2, #ebecec)" d="M4.73 1.661c-1.626 0-2.956 1.33-2.956 2.956v9.461c0 1.626 1.33 2.956 2.956 2.956h9.461c1.626 0 2.956-1.33 2.956-2.956v-9.461c0-1.626-1.33-2.956-2.956-2.956h-9.461zM4.73 1.957h9.461c1.478 0 2.661 1.183 2.661 2.661v9.461c0 1.478-1.183 2.809-2.661 2.809h-9.461c-1.478 0-2.809-1.33-2.809-2.809v-9.461c0-1.478 1.33-2.661 2.809-2.661z"></path>
<path fill="#ebecec" style="fill: var(--color2, #ebecec)" d="M5.174 9.348c0 0.571-0.463 1.035-1.035 1.035s-1.035-0.463-1.035-1.035c0-0.571 0.463-1.035 1.035-1.035s1.035 0.463 1.035 1.035z"></path>
<path fill="#ebecec" style="fill: var(--color2, #ebecec)" d="M10.823 8.313c2.712 0 4.91 0.487 4.91 1.088s-2.198 1.088-4.91 1.088c-2.712 0-4.91-0.487-4.91-1.088s2.198-1.088 4.91-1.088z"></path>
<path fill="#ebecec" style="fill: var(--color2, #ebecec)" d="M5.322 4.913c0 0.571-0.463 1.035-1.035 1.035s-1.035-0.463-1.035-1.035c0-0.571 0.463-1.035 1.035-1.035s1.035 0.463 1.035 1.035z"></path>
<path fill="#ebecec" style="fill: var(--color2, #ebecec)" d="M10.971 3.878c2.712 0 4.91 0.487 4.91 1.088s-2.198 1.088-4.91 1.088c-2.712 0-4.91-0.487-4.91-1.088s2.198-1.088 4.91-1.088z"></path>
<path fill="#ebecec" style="fill: var(--color2, #ebecec)" d="M5.174 13.783c0 0.571-0.463 1.035-1.035 1.035s-1.035-0.463-1.035-1.035c0-0.571 0.463-1.035 1.035-1.035s1.035 0.463 1.035 1.035z"></path>
<path fill="#ebecec" style="fill: var(--color2, #ebecec)" d="M10.823 12.748c2.712 0 4.91 0.487 4.91 1.088s-2.198 1.088-4.91 1.088c-2.712 0-4.91-0.487-4.91-1.088s2.198-1.088 4.91-1.088z"></path>
<path fill="#fcd5a6" style="fill: var(--color3, #fcd5a6)" d="M29.565 13.044c0.739-0.296 1.478 0 1.774 0.591l2.070 3.991c0.443 0.739 0.739 1.626 1.183 2.365 0.591 1.035 0.443 1.922-0.591 2.217v0l0.739 1.33-6.948 3.252-0.591-1.33c-0.739 0.296-1.478 0.148-2.513-0.739-3.104-2.365-4.583-3.548-6.209-5.026 1.035-1.922 2.365-1.478 4.139 0.296l-4.287-8.869c-0.296-0.739-0.148-1.478 0.591-1.774 0.591-0.296 1.33 0 1.626 0.591l2.809 5.617c-0.148-0.591 0.148-1.183 0.739-1.478 0.739-0.296 1.478-0.148 1.774 0.591l0.296 0.443c-0.148-0.591 0.148-1.183 0.739-1.478 0.591-0.443 1.478-0.148 1.774 0.443l0.148 0.296c0-0.443 0.296-1.035 0.739-1.33z"></path>
<path fill="#e31e24" style="fill: var(--color4, #e31e24)" d="M27.021 27.174l8.698-4.269 0.782 1.594-8.698 4.269-0.782-1.594z"></path>
<path fill="#c02222" style="fill: var(--color5, #c02222)" d="M28.017 28.626l8.139-3.995 1.655 3.372-8.139 3.995-1.655-3.372z"></path>
</symbol>
<symbol id="icon-logoX" viewBox="0 0 25 32">
<path fill="#1b1927ff" style="fill: var(--color1, #1b1927ff)" d="M18.526 9.271c0 5.12-4.151 9.271-9.271 9.271s-9.271-4.151-9.271-9.271c0-5.12 4.151-9.271 9.271-9.271s9.271 4.151 9.271 9.271z"></path>
<path fill="#ebecec" style="fill: var(--color2, #ebecec)" d="M9.255 0.897c-4.486 0-8.374 3.888-8.374 8.374 0 4.785 3.888 8.673 8.374 8.673 4.785 0 8.673-3.888 8.673-8.673 0-4.486-3.888-8.374-8.673-8.374zM9.255 0.598c5.084 0 8.972 3.888 8.972 8.673 0 5.084-3.888 8.972-8.972 8.972-4.785 0-8.673-3.888-8.673-8.972 0-4.785 3.888-8.673 8.673-8.673z"></path>
<path fill="#ebecec" style="fill: var(--color2, #ebecec)" d="M4.47 14.654l3.888-5.383-3.888-5.383h2.393l1.794 2.692c0.299 0.299 0.598 0.897 0.598 1.196 0.299-0.598 0.598-0.897 0.897-1.196l1.794-2.692h2.093l-3.589 5.383 3.888 5.383h-2.093l-2.393-3.29-0.299-0.598-2.991 3.888h-2.093z"></path>
<path fill="#fcd5a6" style="fill: var(--color3, #fcd5a6)" d="M16.732 12.86c0.598-0.299 1.495 0 1.794 0.598l2.093 4.187c0.299 0.598 0.598 1.495 1.196 2.093 0.598 1.196 0.299 2.093-0.598 2.393v0l0.598 1.196-6.878 3.29-0.598-1.196c-0.598 0-1.495 0-2.692-0.897-2.991-2.393-4.486-3.589-5.981-5.084 0.897-1.794 2.393-1.495 4.187 0.299l-4.486-8.972c-0.299-0.598 0-1.196 0.598-1.495s1.495-0.299 1.794 0.598l2.692 5.682c0-0.598 0.299-1.495 0.897-1.495 0.598-0.598 1.495-0.299 1.794 0.299v0.598c0-0.598 0.299-1.196 0.897-1.495s1.495-0.299 1.794 0.598v0.299c0-0.598 0.299-1.196 0.897-1.495z"></path>
<path fill="#e31e24" style="fill: var(--color4, #e31e24)" d="M14.158 27.057l8.739-4.289 0.786 1.601-8.739 4.289-0.786-1.601z"></path>
<path fill="#c02222" style="fill: var(--color5, #c02222)" d="M15.159 28.517l8.177-4.014 1.663 3.388-8.177 4.014-1.663-3.388z"></path>
</symbol>
</defs>
</svg>
